<mxfile host="app.diagrams.net" modified="2024-06-17T11:38:47.303Z" agent="Mozilla/5.0 (Macintosh; Intel Mac OS X 10_15_7) AppleWebKit/605.1.15 (KHTML, like Gecko) Version/17.5 Safari/605.1.15" version="24.5.4" etag="Nf8XdgUuQJJfQnKyk0fL" type="github">
  <diagram name="Pagina-1" id="_TwcQnbIdvXYBpOGIeRv">
    <mxGraphModel>
      <root>
        <mxCell id="0" />
        <mxCell id="1" parent="0" />
      </root>
    </mxGraphModel>
  </diagram>
</mxfile>
